<mxfile host="65bd71144e">
    <diagram id="WycDzhvVg-aAfsYQC9Wk" name="Page-1">
        <mxGraphModel dx="1282" dy="1558" grid="1" gridSize="10" guides="1" tooltips="1" connect="1" arrows="1" fold="1" page="1" pageScale="1" pageWidth="850" pageHeight="1100" math="0" shadow="0">
            <root>
                <mxCell id="0"/>
                <mxCell id="1" parent="0"/>
                <mxCell id="2" value="" style="rounded=0;whiteSpace=wrap;html=1;fillColor=#E6E6E6;" vertex="1" parent="1">
                    <mxGeometry x="130" y="280" width="90" height="60" as="geometry"/>
                </mxCell>
                <mxCell id="3" value="" style="rounded=0;whiteSpace=wrap;html=1;" vertex="1" parent="1">
                    <mxGeometry x="90" y="280" width="40" height="60" as="geometry"/>
                </mxCell>
                <mxCell id="4" value="" style="rounded=0;whiteSpace=wrap;html=1;" vertex="1" parent="1">
                    <mxGeometry x="220" y="280" width="40" height="60" as="geometry"/>
                </mxCell>
                <mxCell id="5" value="" style="endArrow=classic;html=1;" edge="1" parent="1">
                    <mxGeometry relative="1" as="geometry">
                        <mxPoint x="20" y="310" as="sourcePoint"/>
                        <mxPoint x="90" y="309.5" as="targetPoint"/>
                    </mxGeometry>
                </mxCell>
                <mxCell id="6" value="头指针" style="edgeLabel;resizable=0;html=1;;align=center;verticalAlign=middle;" connectable="0" vertex="1" parent="5">
                    <mxGeometry relative="1" as="geometry"/>
                </mxCell>
                <mxCell id="9" value="a1" style="rounded=0;whiteSpace=wrap;html=1;fillColor=#ffe6cc;strokeColor=#d79b00;" vertex="1" parent="1">
                    <mxGeometry x="340" y="280" width="90" height="60" as="geometry"/>
                </mxCell>
                <mxCell id="10" value="" style="rounded=0;whiteSpace=wrap;html=1;" vertex="1" parent="1">
                    <mxGeometry x="300" y="280" width="40" height="60" as="geometry"/>
                </mxCell>
                <mxCell id="11" value="" style="rounded=0;whiteSpace=wrap;html=1;" vertex="1" parent="1">
                    <mxGeometry x="430" y="280" width="40" height="60" as="geometry"/>
                </mxCell>
                <mxCell id="12" value="a2" style="rounded=0;whiteSpace=wrap;html=1;fillColor=#fff2cc;strokeColor=#d6b656;" vertex="1" parent="1">
                    <mxGeometry x="550" y="280" width="90" height="60" as="geometry"/>
                </mxCell>
                <mxCell id="13" value="" style="rounded=0;whiteSpace=wrap;html=1;" vertex="1" parent="1">
                    <mxGeometry x="510" y="280" width="40" height="60" as="geometry"/>
                </mxCell>
                <mxCell id="14" value="" style="rounded=0;whiteSpace=wrap;html=1;" vertex="1" parent="1">
                    <mxGeometry x="640" y="280" width="40" height="60" as="geometry"/>
                </mxCell>
                <mxCell id="15" value="an" style="rounded=0;whiteSpace=wrap;html=1;fillColor=#66B2FF;" vertex="1" parent="1">
                    <mxGeometry x="860" y="280" width="90" height="60" as="geometry"/>
                </mxCell>
                <mxCell id="16" value="" style="rounded=0;whiteSpace=wrap;html=1;" vertex="1" parent="1">
                    <mxGeometry x="820" y="280" width="40" height="60" as="geometry"/>
                </mxCell>
                <mxCell id="17" value="" style="rounded=0;whiteSpace=wrap;html=1;" vertex="1" parent="1">
                    <mxGeometry x="950" y="280" width="40" height="60" as="geometry"/>
                </mxCell>
                <mxCell id="18" value="······" style="text;html=1;align=center;verticalAlign=middle;resizable=0;points=[];autosize=1;strokeColor=none;fillColor=none;" vertex="1" parent="1">
                    <mxGeometry x="725" y="298" width="50" height="30" as="geometry"/>
                </mxCell>
                <mxCell id="19" value="" style="edgeStyle=segmentEdgeStyle;endArrow=classic;html=1;curved=0;rounded=0;endSize=8;startSize=8;exitX=0.5;exitY=1;exitDx=0;exitDy=0;entryX=0.5;entryY=1;entryDx=0;entryDy=0;" edge="1" parent="1" source="3" target="15">
                    <mxGeometry width="50" height="50" relative="1" as="geometry">
                        <mxPoint x="120" y="470" as="sourcePoint"/>
                        <mxPoint x="170" y="420" as="targetPoint"/>
                        <Array as="points">
                            <mxPoint x="110" y="420"/>
                            <mxPoint x="905" y="420"/>
                        </Array>
                    </mxGeometry>
                </mxCell>
                <mxCell id="20" value="" style="edgeStyle=segmentEdgeStyle;endArrow=classic;html=1;curved=0;rounded=0;endSize=8;startSize=8;exitX=0.5;exitY=0;exitDx=0;exitDy=0;entryX=0.5;entryY=0;entryDx=0;entryDy=0;" edge="1" parent="1" source="17" target="2">
                    <mxGeometry width="50" height="50" relative="1" as="geometry">
                        <mxPoint x="815" y="180" as="sourcePoint"/>
                        <mxPoint x="865" y="130" as="targetPoint"/>
                        <Array as="points">
                            <mxPoint x="970" y="210"/>
                            <mxPoint x="175" y="210"/>
                        </Array>
                    </mxGeometry>
                </mxCell>
                <mxCell id="21" value="" style="edgeStyle=segmentEdgeStyle;endArrow=classic;html=1;curved=0;rounded=0;endSize=8;startSize=8;exitX=0.5;exitY=0;exitDx=0;exitDy=0;entryX=0.5;entryY=0;entryDx=0;entryDy=0;" edge="1" parent="1" source="4" target="9">
                    <mxGeometry width="50" height="50" relative="1" as="geometry">
                        <mxPoint x="240" y="260" as="sourcePoint"/>
                        <mxPoint x="290" y="210" as="targetPoint"/>
                        <Array as="points">
                            <mxPoint x="240" y="240"/>
                            <mxPoint x="385" y="240"/>
                        </Array>
                    </mxGeometry>
                </mxCell>
                <mxCell id="22" value="" style="edgeStyle=segmentEdgeStyle;endArrow=classic;html=1;curved=0;rounded=0;endSize=8;startSize=8;exitX=0.5;exitY=1;exitDx=0;exitDy=0;" edge="1" parent="1" source="10">
                    <mxGeometry width="50" height="50" relative="1" as="geometry">
                        <mxPoint x="130" y="390" as="sourcePoint"/>
                        <mxPoint x="180" y="340" as="targetPoint"/>
                        <Array as="points">
                            <mxPoint x="320" y="380"/>
                            <mxPoint x="180" y="380"/>
                        </Array>
                    </mxGeometry>
                </mxCell>
                <mxCell id="23" value="" style="edgeStyle=segmentEdgeStyle;endArrow=classic;html=1;curved=0;rounded=0;endSize=8;startSize=8;exitX=0.5;exitY=1;exitDx=0;exitDy=0;" edge="1" parent="1">
                    <mxGeometry width="50" height="50" relative="1" as="geometry">
                        <mxPoint x="530" y="340" as="sourcePoint"/>
                        <mxPoint x="390" y="340" as="targetPoint"/>
                        <Array as="points">
                            <mxPoint x="530" y="380"/>
                            <mxPoint x="390" y="380"/>
                        </Array>
                    </mxGeometry>
                </mxCell>
                <mxCell id="24" value="" style="edgeStyle=segmentEdgeStyle;endArrow=classic;html=1;curved=0;rounded=0;endSize=8;startSize=8;exitX=0.5;exitY=0;exitDx=0;exitDy=0;entryX=0.5;entryY=0;entryDx=0;entryDy=0;" edge="1" parent="1">
                    <mxGeometry width="50" height="50" relative="1" as="geometry">
                        <mxPoint x="450" y="280" as="sourcePoint"/>
                        <mxPoint x="595" y="280" as="targetPoint"/>
                        <Array as="points">
                            <mxPoint x="450" y="240"/>
                            <mxPoint x="595" y="240"/>
                        </Array>
                    </mxGeometry>
                </mxCell>
                <mxCell id="25" value="" style="edgeStyle=segmentEdgeStyle;endArrow=classic;html=1;curved=0;rounded=0;endSize=8;startSize=8;exitX=0.5;exitY=0;exitDx=0;exitDy=0;" edge="1" parent="1">
                    <mxGeometry width="50" height="50" relative="1" as="geometry">
                        <mxPoint x="660" y="280" as="sourcePoint"/>
                        <mxPoint x="730" y="280" as="targetPoint"/>
                        <Array as="points">
                            <mxPoint x="660" y="240"/>
                            <mxPoint x="730" y="240"/>
                        </Array>
                    </mxGeometry>
                </mxCell>
                <mxCell id="27" value="" style="edgeStyle=segmentEdgeStyle;endArrow=classic;html=1;curved=0;rounded=0;endSize=8;startSize=8;" edge="1" parent="1">
                    <mxGeometry width="50" height="50" relative="1" as="geometry">
                        <mxPoint x="700" y="340" as="sourcePoint"/>
                        <mxPoint x="600" y="340" as="targetPoint"/>
                        <Array as="points">
                            <mxPoint x="700" y="340"/>
                            <mxPoint x="700" y="380"/>
                            <mxPoint x="600" y="380"/>
                        </Array>
                    </mxGeometry>
                </mxCell>
                <mxCell id="28" value="" style="edgeStyle=segmentEdgeStyle;endArrow=classic;html=1;curved=0;rounded=0;endSize=8;startSize=8;" edge="1" parent="1">
                    <mxGeometry width="50" height="50" relative="1" as="geometry">
                        <mxPoint x="840" y="340" as="sourcePoint"/>
                        <mxPoint x="740" y="340" as="targetPoint"/>
                        <Array as="points">
                            <mxPoint x="840" y="340"/>
                            <mxPoint x="840" y="380"/>
                            <mxPoint x="740" y="380"/>
                        </Array>
                    </mxGeometry>
                </mxCell>
                <mxCell id="29" value="" style="edgeStyle=segmentEdgeStyle;endArrow=classic;html=1;curved=0;rounded=0;endSize=8;startSize=8;exitX=0.5;exitY=0;exitDx=0;exitDy=0;" edge="1" parent="1">
                    <mxGeometry width="50" height="50" relative="1" as="geometry">
                        <mxPoint x="770" y="280" as="sourcePoint"/>
                        <mxPoint x="840" y="280" as="targetPoint"/>
                        <Array as="points">
                            <mxPoint x="770" y="240"/>
                            <mxPoint x="840" y="240"/>
                        </Array>
                    </mxGeometry>
                </mxCell>
            </root>
        </mxGraphModel>
    </diagram>
</mxfile>